<svg width="27" height="26" viewBox="0 0 27 26" fill="none" xmlns="http://www.w3.org/2000/svg">
<path fill-rule="evenodd" clip-rule="evenodd" d="M0.678711 13C0.678711 5.83191 6.54964 0 13.7657 0C20.9823 0 26.8527 5.83191 26.8527 13C26.8527 20.1687 20.9823 26 13.7657 26C6.54964 26 0.678711 20.1687 0.678711 13ZM16.4441 17.9213L20.9956 13.4002C21.0485 13.3476 21.09 13.2854 21.119 13.2159C21.1765 13.078 21.1765 12.922 21.119 12.7841C21.09 12.7146 21.0485 12.6518 20.9956 12.5998L16.4441 8.07865C16.2217 7.85765 15.8621 7.85765 15.6396 8.07865C15.4171 8.29965 15.4171 8.65687 15.6396 8.87787L19.2203 12.4348H6.93789C6.62381 12.4348 6.3689 12.688 6.3689 13C6.3689 13.312 6.62381 13.5652 6.93789 13.5652H19.2203L15.6396 17.1221C15.4171 17.3431 15.4171 17.7003 15.6396 17.9213C15.7505 18.0316 15.8962 18.087 16.0419 18.087C16.1875 18.087 16.3332 18.0316 16.4441 17.9213Z" fill="white"/>
<path fill-rule="evenodd" clip-rule="evenodd" d="M18.5257 12.0158H6.23736C5.69691 12.0158 5.25879 12.4563 5.25879 12.9998C5.25879 13.5432 5.69691 13.9838 6.23736 13.9838H18.5256L15.3569 17.1703C14.9747 17.5546 14.9748 18.1776 15.3569 18.5619C15.7391 18.9461 16.3587 18.9461 16.7408 18.5618L22.2717 12.9998L16.7419 7.4383C16.3597 7.05399 15.7401 7.05393 15.3579 7.43815C14.9758 7.82238 14.9757 8.4454 15.3578 8.82971L18.5257 12.0158Z" fill="#00903A"/>
</svg>
