<svg width="842" height="655" viewBox="0 0 842 655" fill="none" xmlns="http://www.w3.org/2000/svg">
<path d="M246.826 581.008C279.546 581.008 306.07 554.484 306.07 521.765C306.07 489.046 279.546 462.521 246.826 462.521C214.107 462.521 187.583 489.046 187.583 521.765C187.583 554.484 214.107 581.008 246.826 581.008Z" fill="#F2F2F2"/>
<path d="M256.46 572.338C289.179 572.338 315.703 545.814 315.703 513.095C315.703 480.376 289.179 453.852 256.46 453.852C223.741 453.852 197.217 480.376 197.217 513.095C197.217 545.814 223.741 572.338 256.46 572.338Z" fill="#00903A"/>
<path d="M683.793 18.6521H423.623V13.2898H305.652V18.6521H44.41C42.099 18.6521 39.8105 19.1073 37.6754 19.9917C35.5402 20.8761 33.6002 22.1724 31.966 23.8066C30.3318 25.4408 29.0355 27.3808 28.1511 29.516C27.2667 31.6511 26.8115 33.9396 26.8115 36.2506V392.503C26.8115 397.17 28.6656 401.646 31.966 404.947C35.2664 408.247 39.7426 410.101 44.41 410.101H683.793C688.46 410.101 692.936 408.247 696.237 404.947C699.537 401.646 701.391 397.17 701.391 392.503V36.2506C701.391 33.9396 700.936 31.6511 700.052 29.516C699.167 27.3808 697.871 25.4408 696.237 23.8066C694.603 22.1724 692.663 20.8761 690.527 19.9917C688.392 19.1073 686.104 18.6521 683.793 18.6521V18.6521Z" fill="#3F3D56"/>
<path d="M677.798 49.7537H50.4062V403.667H677.798V49.7537Z" fill="#00903A"/>
<path d="M363.566 40.1015C367.119 40.1015 370 37.2205 370 33.6667C370 30.1129 367.119 27.2319 363.566 27.2319C360.012 27.2319 357.131 30.1129 357.131 33.6667C357.131 37.2205 360.012 40.1015 363.566 40.1015Z" fill="#00903A"/>
<path opacity="0.1" d="M498.374 403.667H50.4062V49.7539L498.374 403.667Z" fill="black"/>
<path d="M148.573 377.183C181.88 377.183 208.88 350.183 208.88 316.876C208.88 283.57 181.88 256.57 148.573 256.57C115.267 256.57 88.2666 283.57 88.2666 316.876C88.2666 350.183 115.267 377.183 148.573 377.183Z" fill="#F2F2F2"/>
<path d="M568.558 240.622H509.953V252.868H568.558V240.622Z" fill="#3F3D56"/>
<path d="M639.409 145.279H439.102V150.527H639.409V145.279Z" fill="#3F3D56"/>
<path d="M639.409 161.898H439.102V167.147H639.409V161.898Z" fill="#3F3D56"/>
<path d="M639.409 178.518H439.102V183.766H639.409V178.518Z" fill="#3F3D56"/>
<path d="M639.409 195.137H439.102V200.385H639.409V195.137Z" fill="#3F3D56"/>
<path d="M639.409 211.757H439.102V217.005H639.409V211.757Z" fill="#3F3D56"/>
<path d="M639.409 56.9338H614.917V81.4256H639.409V56.9338Z" fill="#F2F2F2"/>
<path d="M650.78 92.7966H621.04V63.0566H650.78V92.7966ZM622.333 91.5036H649.487V64.3497H622.333V91.5036Z" fill="#3F3D56"/>
<path d="M719.007 397.232H657.778V392.82C657.778 392.705 657.755 392.592 657.711 392.486C657.667 392.379 657.603 392.283 657.522 392.202C657.44 392.12 657.344 392.056 657.238 392.012C657.132 391.968 657.018 391.946 656.903 391.946H635.91C635.795 391.946 635.682 391.968 635.575 392.012C635.469 392.056 635.373 392.12 635.292 392.202C635.21 392.283 635.146 392.379 635.102 392.486C635.058 392.592 635.035 392.705 635.035 392.82V397.232H621.915V392.82C621.915 392.705 621.892 392.592 621.848 392.486C621.804 392.379 621.74 392.283 621.659 392.202C621.577 392.12 621.481 392.056 621.375 392.012C621.269 391.968 621.155 391.946 621.04 391.946H600.047C599.932 391.946 599.819 391.968 599.713 392.012C599.606 392.056 599.51 392.12 599.429 392.202C599.348 392.283 599.283 392.379 599.239 392.486C599.195 392.592 599.173 392.705 599.173 392.82V397.232H586.052V392.82C586.052 392.705 586.029 392.592 585.985 392.486C585.942 392.379 585.877 392.283 585.796 392.202C585.715 392.12 585.618 392.056 585.512 392.012C585.406 391.968 585.292 391.946 585.177 391.946H564.184C564.07 391.946 563.956 391.968 563.85 392.012C563.744 392.056 563.647 392.12 563.566 392.202C563.485 392.283 563.42 392.379 563.376 392.486C563.332 392.592 563.31 392.705 563.31 392.82V397.232H550.189V392.82C550.189 392.705 550.167 392.592 550.123 392.486C550.079 392.379 550.014 392.283 549.933 392.202C549.852 392.12 549.755 392.056 549.649 392.012C549.543 391.968 549.429 391.946 549.314 391.946H528.322C528.207 391.946 528.093 391.968 527.987 392.012C527.881 392.056 527.784 392.12 527.703 392.202C527.622 392.283 527.557 392.379 527.513 392.486C527.469 392.592 527.447 392.705 527.447 392.82V397.232H514.326V392.82C514.326 392.705 514.304 392.592 514.26 392.486C514.216 392.379 514.151 392.283 514.07 392.202C513.989 392.12 513.892 392.056 513.786 392.012C513.68 391.968 513.566 391.946 513.452 391.946H492.459C492.344 391.946 492.23 391.968 492.124 392.012C492.018 392.056 491.921 392.12 491.84 392.202C491.759 392.283 491.694 392.379 491.651 392.486C491.607 392.592 491.584 392.705 491.584 392.82V397.232H478.463V392.82C478.463 392.705 478.441 392.592 478.397 392.486C478.353 392.379 478.288 392.283 478.207 392.202C478.126 392.12 478.03 392.056 477.923 392.012C477.817 391.968 477.704 391.946 477.589 391.946H456.596C456.481 391.946 456.367 391.968 456.261 392.012C456.155 392.056 456.058 392.12 455.977 392.202C455.896 392.283 455.832 392.379 455.788 392.486C455.744 392.592 455.721 392.705 455.721 392.82V397.232H442.6V392.82C442.6 392.705 442.578 392.592 442.534 392.486C442.49 392.379 442.425 392.283 442.344 392.202C442.263 392.12 442.167 392.056 442.06 392.012C441.954 391.968 441.841 391.946 441.726 391.946H277.281C277.166 391.946 277.053 391.968 276.947 392.012C276.84 392.056 276.744 392.12 276.663 392.202C276.582 392.283 276.517 392.379 276.473 392.486C276.429 392.592 276.407 392.705 276.407 392.82V397.232H263.286V392.82C263.286 392.705 263.263 392.592 263.219 392.486C263.176 392.379 263.111 392.283 263.03 392.202C262.949 392.12 262.852 392.056 262.746 392.012C262.64 391.968 262.526 391.946 262.411 391.946H241.418C241.304 391.946 241.19 391.968 241.084 392.012C240.978 392.056 240.881 392.12 240.8 392.202C240.719 392.283 240.654 392.379 240.61 392.486C240.566 392.592 240.544 392.705 240.544 392.82V397.232H227.423V392.82C227.423 392.705 227.401 392.592 227.357 392.486C227.313 392.379 227.248 392.283 227.167 392.202C227.086 392.12 226.989 392.056 226.883 392.012C226.777 391.968 226.663 391.946 226.548 391.946H205.556C205.441 391.946 205.327 391.968 205.221 392.012C205.115 392.056 205.018 392.12 204.937 392.202C204.856 392.283 204.791 392.379 204.747 392.486C204.703 392.592 204.681 392.705 204.681 392.82V397.232H191.56V392.82C191.56 392.705 191.538 392.592 191.494 392.486C191.45 392.379 191.385 392.283 191.304 392.202C191.223 392.12 191.126 392.056 191.02 392.012C190.914 391.968 190.8 391.946 190.686 391.946H169.693C169.578 391.946 169.464 391.968 169.358 392.012C169.252 392.056 169.155 392.12 169.074 392.202C168.993 392.283 168.928 392.379 168.885 392.486C168.841 392.592 168.818 392.705 168.818 392.82V397.232H155.697V392.82C155.697 392.705 155.675 392.592 155.631 392.486C155.587 392.379 155.522 392.283 155.441 392.202C155.36 392.12 155.264 392.056 155.157 392.012C155.051 391.968 154.938 391.946 154.823 391.946H133.83C133.715 391.946 133.601 391.968 133.495 392.012C133.389 392.056 133.292 392.12 133.211 392.202C133.13 392.283 133.066 392.379 133.022 392.486C132.978 392.592 132.955 392.705 132.955 392.82V397.232H119.835V392.82C119.835 392.705 119.812 392.592 119.768 392.486C119.724 392.379 119.66 392.283 119.578 392.202C119.497 392.12 119.401 392.056 119.295 392.012C119.188 391.968 119.075 391.946 118.96 391.946H97.9669C97.852 391.946 97.7383 391.968 97.6322 392.012C97.526 392.056 97.4296 392.12 97.3484 392.202C97.2672 392.283 97.2027 392.379 97.1588 392.486C97.1148 392.592 97.0922 392.705 97.0922 392.82V397.232H83.9716V392.82C83.9716 392.705 83.949 392.592 83.9051 392.486C83.8611 392.379 83.7967 392.283 83.7154 392.202C83.6342 392.12 83.5378 392.056 83.4317 392.012C83.3255 391.968 83.2118 391.946 83.0969 391.946H62.104C61.9891 391.946 61.8754 391.968 61.7693 392.012C61.6632 392.056 61.5667 392.12 61.4855 392.202C61.4043 392.283 61.3398 392.379 61.2959 392.486C61.2519 392.592 61.2293 392.705 61.2293 392.82V397.232H20.9929C15.4252 397.232 10.0856 399.444 6.14869 403.38C2.21175 407.317 5.30432e-06 412.657 0 418.225V427.717C1.5913e-05 433.285 2.21177 438.624 6.1487 442.561C10.0856 446.498 15.4253 448.71 20.9929 448.71H719.007C724.575 448.71 729.914 446.498 733.851 442.561C737.788 438.624 740 433.285 740 427.717V418.225C740 412.657 737.788 407.317 733.851 403.38C729.914 399.444 724.575 397.232 719.007 397.232Z" fill="#3F3D56"/>
<path d="M163.171 354.543C148.14 354.543 133.446 350.086 120.948 341.735C108.449 333.384 98.7083 321.514 92.9561 307.627C87.2038 293.74 85.6988 278.459 88.6313 263.716C91.5637 248.974 98.802 235.432 109.431 224.803C120.06 214.174 133.602 206.936 148.344 204.004C163.087 201.071 178.368 202.576 192.255 208.328C206.142 214.081 218.012 223.822 226.363 236.32C234.714 248.818 239.171 263.512 239.171 278.543C239.148 298.693 231.134 318.01 216.886 332.258C202.638 346.506 183.32 354.52 163.171 354.543ZM163.171 204.543C148.535 204.543 134.228 208.883 122.059 217.014C109.89 225.146 100.405 236.703 94.8038 250.225C89.203 263.746 87.7375 278.625 90.5928 292.98C93.4481 307.335 100.496 320.52 110.845 330.869C121.194 341.218 134.38 348.266 148.734 351.121C163.089 353.977 177.968 352.511 191.49 346.91C205.011 341.309 216.568 331.825 224.7 319.655C232.831 307.486 237.171 293.179 237.171 278.543C237.149 258.924 229.345 240.115 215.472 226.242C201.599 212.369 182.79 204.565 163.171 204.543V204.543Z" fill="#3F3D56"/>
<path d="M841.171 32.5432H586.172V34.5432H841.171V32.5432Z" fill="#3F3D56"/>
<path d="M499 550H471V578H499V550Z" fill="#00903A"/>
<path d="M516 562H482V528H516V562ZM483.478 560.522H514.522V529.478H483.478V560.522Z" fill="#3F3D56"/>
<path d="M824 22H796V50H824V22Z" fill="#00903A"/>
<path d="M841 34H807V0H841V34ZM808.478 32.5217H839.522V1.47826H808.478V32.5217Z" fill="#3F3D56"/>
<path d="M812 314H784V342H812V314Z" fill="#00903A"/>
<path d="M829 326H795V292H829V326ZM796.478 324.522H827.522V293.478H796.478V324.522Z" fill="#3F3D56"/>
<path d="M320.171 654.543C302.964 654.543 286.143 649.441 271.836 639.881C257.529 630.321 246.378 616.734 239.793 600.837C233.209 584.94 231.486 567.447 234.843 550.57C238.2 533.694 246.485 518.192 258.653 506.025C270.82 493.858 286.322 485.572 303.198 482.215C320.074 478.858 337.567 480.581 353.464 487.166C369.362 493.751 382.949 504.902 392.509 519.209C402.069 533.516 407.171 550.336 407.171 567.543C407.145 590.609 397.97 612.723 381.66 629.033C365.35 645.343 343.237 654.517 320.171 654.543ZM320.171 482.543C303.36 482.543 286.926 487.528 272.947 496.868C258.969 506.208 248.075 519.483 241.641 535.015C235.208 550.547 233.524 567.638 236.804 584.126C240.084 600.614 248.179 615.76 260.067 627.647C271.954 639.535 287.1 647.63 303.588 650.91C320.077 654.19 337.167 652.506 352.699 646.073C368.231 639.64 381.506 628.745 390.846 614.767C400.186 600.789 405.171 584.355 405.171 567.543C405.145 545.008 396.182 523.402 380.247 507.467C364.312 491.532 342.707 482.569 320.171 482.543V482.543Z" fill="#3F3D56"/>
</svg>
