<svg width="192" height="51" viewBox="0 0 192 51" fill="none" xmlns="http://www.w3.org/2000/svg">
<rect width="192" height="51" fill="white"/>
<path d="M5.09375 25H9.25L11.9688 16.0625H12.0938L14.8125 25H18.9688L23.6875 9H18.8438L16.6563 18.875H16.5313L13.9375 9H10.125L7.53125 18.8437H7.40625L5.21875 9H0.375L5.09375 25ZM30.8809 25L31.8027 21.9375H37.084L38.0059 25H42.6934L37.4121 9H31.4746L26.1934 25H30.8809ZM32.7871 18.6875L34.3809 13.4063H34.5059L36.0996 18.6875H32.7871ZM57.373 14.2812H61.7637C61.4277 11.0703 58.5137 8.78125 54.7324 8.78125C50.4199 8.78125 46.9199 11.75 46.9199 17.0313C46.9199 22.0937 50.0918 25.2187 54.7637 25.2187C58.9512 25.2187 61.9512 22.6562 61.9512 18.2812V16.0625H54.8574V19.1562H57.7637C57.7246 20.5469 56.7402 21.4375 54.7949 21.4375C52.5449 21.4375 51.3887 19.7812 51.3887 16.9687C51.3887 14.1953 52.6387 12.5625 54.8262 12.5625C56.1855 12.5625 57.1074 13.1875 57.373 14.2812Z" fill="black"/>
<path d="M77.1328 13H79.0078C78.9219 10.5859 76.6953 8.78125 73.6016 8.78125C70.5391 8.78125 68.1328 10.5625 68.1328 13.25C68.1328 15.4062 69.6953 16.6875 72.1953 17.4062L74.1641 17.9687C75.8516 18.4375 77.3516 19.0313 77.3516 20.625C77.3516 22.375 75.6641 23.5312 73.4453 23.5312C71.5391 23.5312 69.8516 22.6875 69.6953 20.875H67.6953C67.8828 23.5 70.0078 25.2813 73.4453 25.2813C77.1328 25.2813 79.2266 23.25 79.2266 20.6562C79.2266 17.6562 76.3828 16.6875 74.7266 16.25L73.1016 15.8125C71.9141 15.5 70.0078 14.875 70.0078 13.1562C70.0078 11.625 71.4141 10.5 73.5391 10.5C75.4766 10.5 76.9453 11.4219 77.1328 13ZM84.5371 9L90.3184 18.4063V25H92.2559V18.4063L98.0371 9H95.8184L91.3809 16.4687H91.1934L86.7559 9H84.5371ZM112.793 13H114.668C114.582 10.5859 112.355 8.78125 109.262 8.78125C106.199 8.78125 103.793 10.5625 103.793 13.25C103.793 15.4062 105.355 16.6875 107.855 17.4062L109.824 17.9687C111.512 18.4375 113.012 19.0313 113.012 20.625C113.012 22.375 111.324 23.5312 109.105 23.5312C107.199 23.5312 105.512 22.6875 105.355 20.875H103.355C103.543 23.5 105.668 25.2813 109.105 25.2813C112.793 25.2813 114.887 23.25 114.887 20.6562C114.887 17.6562 112.043 16.6875 110.387 16.25L108.762 15.8125C107.574 15.5 105.668 14.875 105.668 13.1562C105.668 11.625 107.074 10.5 109.199 10.5C111.137 10.5 112.605 11.4219 112.793 13ZM120.697 10.7187H125.729V25H127.666V10.7187H132.697V9H120.697V10.7187ZM139.188 25H148.969V23.2812H141.125V17.8437H148.344V16.125H141.125V10.7187H148.844V9H139.188V25ZM155.836 9V25H157.648V12.8438H157.805L162.805 25H164.555L169.555 12.8438H169.711V25H171.523V9H169.211L163.773 22.2812H163.586L158.148 9H155.836ZM187.658 13H189.533C189.447 10.5859 187.221 8.78125 184.127 8.78125C181.064 8.78125 178.658 10.5625 178.658 13.25C178.658 15.4062 180.221 16.6875 182.721 17.4062L184.689 17.9687C186.377 18.4375 187.877 19.0313 187.877 20.625C187.877 22.375 186.189 23.5312 183.971 23.5312C182.064 23.5312 180.377 22.6875 180.221 20.875H178.221C178.408 23.5 180.533 25.2813 183.971 25.2813C187.658 25.2813 189.752 23.25 189.752 20.6562C189.752 17.6562 186.908 16.6875 185.252 16.25L183.627 15.8125C182.439 15.5 180.533 14.875 180.533 13.1562C180.533 11.625 181.939 10.5 184.064 10.5C186.002 10.5 187.471 11.4219 187.658 13Z" fill="#007929"/>
<path d="M1.64453 33H1.15625V41H1.64453V33ZM13.0732 33H12.5889V40.1211H12.542L7.44043 33H6.95996V41H7.44824V33.8867H7.49512L12.5967 41H13.0732V33ZM17.8506 33.4531H20.4092V41H20.8975V33.4531H23.4561V33H17.8506V33.4531ZM28.2354 41H32.7822V40.5469H28.7236V37.2227H32.4502V36.7695H28.7236V33.4531H32.6885V33H28.2354V41ZM43.3184 35.5H43.8184C43.5918 34.2227 42.4902 32.8906 40.6816 32.8906C38.6738 32.8906 37.3066 34.5156 37.3066 37C37.3066 39.4766 38.6621 41.1094 40.7246 41.1094C42.5566 41.1094 43.873 39.8203 43.873 37.7031V37.25H40.8496V37.7031H43.3965C43.3848 39.5391 42.2715 40.6406 40.7246 40.6406C38.9668 40.6406 37.7871 39.2148 37.7871 37C37.7871 34.7656 38.9824 33.3594 40.6816 33.3594C42.1621 33.3594 43.0762 34.4219 43.3184 35.5ZM48.8555 41H49.3438V37.6562H51.3242C51.4648 37.6562 51.5977 37.6484 51.7305 37.6328L53.5469 41H54.1094L52.2227 37.5273C53.1953 37.2266 53.7578 36.418 53.7578 35.3398C53.7578 33.9531 52.8398 33 51.3203 33H48.8555V41ZM49.3438 37.1992V33.4531H51.3086C52.5391 33.4531 53.2734 34.1992 53.2734 35.3398C53.2734 36.4727 52.5391 37.1992 51.3125 37.1992H49.3438ZM58.4004 41L59.3145 38.4414H62.791L63.7051 41H64.2207L61.334 33H60.7715L57.8848 41H58.4004ZM59.4746 37.9883L61.0332 33.6289H61.0723L62.6309 37.9883H59.4746ZM67.2471 33.4531H69.8057V41H70.2939V33.4531H72.8525V33H67.2471V33.4531ZM77.6318 41H82.1787V40.5469H78.1201V37.2227H81.8467V36.7695H78.1201V33.4531H82.085V33H77.6318V41ZM89.3281 41C91.707 41 93.0742 39.5117 93.0781 36.9727C93.082 34.4883 91.7461 33 89.5 33H87.1094V41H89.3281ZM87.5977 40.5469V33.4531H89.4805C91.4883 33.4531 92.5938 34.7734 92.5977 36.9727C92.6055 39.207 91.4492 40.5469 89.3086 40.5469H87.5977ZM108.39 35H108.87C108.804 33.7734 107.815 32.8789 106.386 32.8789C104.964 32.8789 103.89 33.7656 103.89 35C103.89 35.9766 104.562 36.6211 105.815 37.0039L106.749 37.2852C107.894 37.6328 108.499 38.0781 108.499 38.918C108.499 39.9648 107.604 40.6719 106.315 40.6719C105.12 40.6719 104.269 40.0547 104.19 39.0625H103.69C103.776 40.2852 104.769 41.1289 106.315 41.1289C107.94 41.1289 108.979 40.1914 108.979 38.9219C108.979 37.7656 108.081 37.1914 106.886 36.832L106.011 36.5742C105.046 36.2852 104.37 35.8125 104.37 34.9844C104.37 34.0273 105.206 33.332 106.374 33.332C107.522 33.332 108.308 34.0078 108.39 35ZM120.272 37C120.272 34.5273 118.882 32.8906 116.89 32.8906C114.89 32.8906 113.503 34.5273 113.503 37C113.503 39.4687 114.89 41.1094 116.89 41.1094C118.882 41.1094 120.272 39.4727 120.272 37ZM119.796 37C119.796 39.2227 118.585 40.6406 116.89 40.6406C115.179 40.6406 113.983 39.2148 113.983 37C113.983 34.7656 115.194 33.3594 116.89 33.3594C118.585 33.3594 119.792 34.7773 119.796 37ZM125.181 41H129.575V40.5469H125.669V33H125.181V41ZM139.786 33V38.2695C139.786 39.6484 138.771 40.6602 137.321 40.6602C135.872 40.6602 134.856 39.6484 134.856 38.2695V33H134.368V38.2969C134.364 39.9219 135.603 41.1289 137.321 41.1289C139.044 41.1289 140.274 39.9258 140.274 38.2969V33H139.786ZM145.055 33.4531H147.613V41H148.102V33.4531H150.66V33H145.055V33.4531ZM155.928 33H155.439V41H155.928V33ZM167.606 37C167.606 34.5273 166.216 32.8906 164.224 32.8906C162.224 32.8906 160.837 34.5273 160.837 37C160.837 39.4687 162.224 41.1094 164.224 41.1094C166.216 41.1094 167.606 39.4727 167.606 37ZM167.13 37C167.13 39.2227 165.919 40.6406 164.224 40.6406C162.513 40.6406 161.317 39.2148 161.317 37C161.317 34.7656 162.528 33.3594 164.224 33.3594C165.919 33.3594 167.126 34.7773 167.13 37ZM178.628 33H178.144V40.1211H178.097L172.995 33H172.515V41H173.003V33.8867H173.05L178.151 41H178.628V33ZM188.249 35H188.729C188.663 33.7734 187.675 32.8789 186.245 32.8789C184.823 32.8789 183.749 33.7656 183.749 35C183.749 35.9766 184.421 36.6211 185.675 37.0039L186.608 37.2852C187.753 37.6328 188.358 38.0781 188.358 38.918C188.358 39.9648 187.464 40.6719 186.175 40.6719C184.979 40.6719 184.128 40.0547 184.05 39.0625H183.55C183.636 40.2852 184.628 41.1289 186.175 41.1289C187.8 41.1289 188.839 40.1914 188.839 38.9219C188.839 37.7656 187.94 37.1914 186.745 36.832L185.87 36.5742C184.905 36.2852 184.229 35.8125 184.229 34.9844C184.229 34.0273 185.065 33.332 186.233 33.332C187.382 33.332 188.167 34.0078 188.249 35Z" fill="black"/>
</svg>
